<?xml version="1.0" encoding="UTF-8" standalone="no"?>
<!DOCTYPE svg PUBLIC "-//W3C//DTD SVG 1.1//EN" "http://www.w3.org/Graphics/SVG/1.1/DTD/svg11.dtd">
<svg width="100%" height="100%" viewBox="0 0 282 390" version="1.1" xmlns="http://www.w3.org/2000/svg" xmlns:xlink="http://www.w3.org/1999/xlink" xml:space="preserve" xmlns:serif="http://www.serif.com/" style="fill-rule:evenodd;clip-rule:evenodd;stroke-linejoin:round;stroke-miterlimit:2;">
    <g>
        <path d="M189.567,341.612L189.567,334.543L190.263,334.478L278.759,326.175L281.562,310.958L281.599,297.955L281.533,297.438C281.395,296.76 278.394,282.038 275.781,269.673C273.98,261.158 262.022,250.93 261.515,250.499L206.764,202.997C206.594,202.858 188.179,187.628 185.003,175.561C176.408,142.9 171.852,98.433 171.663,96.556L171.659,96.479L171.649,86.965L171.56,86.965L171.503,86.262C170.883,78.784 168.526,61.315 168.218,59.446C166.287,47.826 158.265,15.588 152.819,8.16C148.907,2.822 144.751,0 140.799,0C136.848,0 132.692,2.822 128.781,8.16C123.331,15.596 115.309,47.829 113.382,59.446C113.019,61.632 109.948,84.301 109.939,89.024L109.935,96.489C109.746,98.366 105.2,142.843 96.587,175.561C94.078,185.102 81.197,197.729 74.737,203.074L20.107,250.471C18.825,251.563 7.573,261.336 5.81,269.673C3.471,280.741 0.839,293.611 0.088,297.293L0.03,297.577L0,310.558L2.839,326.174L91.583,334.501L91.583,341.675C91.583,343.242 92.86,344.519 94.428,344.519L97.337,344.519L97.146,345.441C97.086,345.729 97.056,346.021 97.056,346.31C97.056,347.468 97.517,348.576 98.391,349.515L98.639,349.781L96.839,362.812L97.32,362.681L97.634,363.084C98.932,364.749 103.125,366.735 115.731,366.735C124.521,366.735 130.306,365.79 132.924,363.927L134.031,363.139L134.133,364.495C134.651,371.412 135.109,376.254 135.456,378.496C136.403,384.595 137.242,388.142 138.959,389.41L139.27,389.641L139.27,390L142.359,389.993L142.359,389.64L142.67,389.41C144.386,388.14 145.225,384.595 146.174,378.496C146.52,376.257 146.977,371.423 147.495,364.516L147.596,363.168L148.7,363.945C151.332,365.797 157.108,366.735 165.866,366.735C178.145,366.735 182.407,364.844 183.819,363.256L184.108,362.932L184.793,363.062L182.958,349.782L183.206,349.516C184.079,348.578 184.541,347.469 184.541,346.31C184.541,346.202 184.532,346.098 184.519,345.983C184.502,345.767 184.474,345.573 184.432,345.386L184.23,344.457L186.724,344.457C188.291,344.457 189.567,343.181 189.567,341.612Z" style="fill:rgb(38,37,37);fill-rule:nonzero;"/>
        <path d="M279.457,310.501L279.411,297.755C279.399,297.757 276.371,282.878 273.674,270.118C272.028,262.335 260.221,252.225 260.101,252.123L205.398,204.663C205.222,204.518 186.27,188.835 182.921,176.108C174.24,143.122 169.698,98.541 169.51,96.659L169.49,88.455C169.266,82.799 166.408,61.699 166.093,59.799C163.954,46.914 155.964,16.093 151.082,9.433C147.641,4.74 143.99,2.155 140.799,2.155C137.609,2.155 133.957,4.74 130.517,9.433C125.634,16.096 117.644,46.915 115.506,59.799C115.154,61.924 112.101,84.546 112.093,89.025L112.092,96.524C111.902,98.466 107.417,142.875 98.67,176.108C95.357,188.7 76.934,204.051 76.151,204.698L21.503,252.111C21.379,252.217 9.559,262.353 7.917,270.118C5.502,281.545 2.723,295.153 2.189,297.766L2.153,298.925L2.153,310.626L4.661,324.182L93.737,332.54L93.737,341.674C93.737,342.055 94.046,342.365 94.428,342.365L100,342.365L99.365,345.476C99.254,345.813 99.21,346.063 99.21,346.31C99.21,347.369 99.97,348.144 100.608,348.608L100.942,348.852L99.418,359.875L100.032,359.707L99.316,361.13C99.245,361.253 99.21,361.353 99.21,361.433C99.21,363.169 106.622,364.582 115.732,364.582C124.842,364.582 132.253,363.169 132.253,361.433C132.243,361.465 132.226,361.404 132.218,361.349L132.024,360.212L132.094,360.236L131.349,354.838L132.276,354.993C133.196,355.147 134.137,355.274 135.075,355.371L135.655,355.431L135.694,356.012C136.445,367.284 137.117,375.152 137.585,378.166C138.815,386.092 139.752,387.766 140.781,387.837L140.818,387.84L140.848,387.837C141.876,387.765 142.814,386.092 144.045,378.166C144.514,375.148 145.185,367.278 145.935,356.011L145.974,355.429L146.554,355.37C147.482,355.274 148.412,355.152 149.322,355L150.251,354.845L149.557,359.854L149.609,359.819L149.34,361.508C149.345,363.169 156.757,364.582 165.867,364.582C174.976,364.582 182.388,363.169 182.388,361.433C182.373,361.462 182.36,361.409 182.352,361.349L182.196,360.391L182.251,360.399L180.656,348.854L180.989,348.609C181.628,348.146 182.388,347.369 182.388,346.31L182.37,346.129C182.36,346.005 182.339,345.878 182.307,345.755L181.724,342.303L186.724,342.303C187.104,342.303 187.415,341.992 187.415,341.612L187.415,332.583L188.041,332.523L276.936,324.182L279.457,310.501Z" style="fill:white;fill-rule:nonzero;"/>
        <path d="M275.145,322.268L188.151,330.43C188.097,327.03 187.902,318.977 187.233,310.626L277.091,310.626L275.145,322.268ZM181.235,340.23L181.235,330.183C183.657,330.771 185.049,331.479 185.341,331.985L185.341,340.23L181.235,340.23ZM135.379,306.3C135.379,290.279 138.984,281.921 140.823,278.701C142.044,280.819 144.029,285.202 145.23,292.607C143.327,287.01 140.896,283.16 140.896,283.16C140.896,283.16 142.412,289.264 142.412,296.864L142.412,348.876C142.412,348.876 142.41,374.53 140.171,380.992C140.003,380.104 139.824,379.072 139.634,377.849C138.215,368.716 135.379,318.77 135.379,306.3ZM95.809,331.998C96.087,331.491 97.478,330.778 99.915,330.187L99.915,340.292L95.809,340.292L95.809,331.998ZM4.508,310.626L93.922,310.626C93.256,318.945 93.06,326.967 93.005,330.388L6.452,322.268L4.508,310.626ZM9.946,270.548C11.435,263.497 22.73,253.789 22.852,253.685L77.491,206.279C78.292,205.622 97.147,190.045 100.676,176.638C101.901,171.981 103.043,167.099 104.103,162.143C103.775,166.898 102.873,174.964 100.376,181.698C96.575,191.948 85.749,201.362 85.749,201.362L23.675,256.097C23.675,256.097 14,264.388 11.928,269.225C10.169,273.328 6.588,291.28 5.542,296.634L4.536,296.634C5.408,292.373 7.807,280.667 9.946,270.548ZM114.485,84.623C114.568,84.561 114.68,84.498 114.824,84.433C114.823,84.402 114.822,84.371 114.821,84.34C118.582,83.114 126.139,82.587 132.183,82.361C133.4,82.314 134.67,82.276 135.992,82.249C136.451,82.239 136.893,82.23 137.305,82.224L137.305,82.226C138.217,82.212 139.151,82.204 140.108,82.202L140.108,127.487C136.743,127.502 125.22,127.646 118.156,128.861L118.126,115.604C117.993,111.011 117.945,106.412 117.899,101.825C117.848,96.203 117.95,90.576 118.225,84.958C117.828,85.024 117.45,85.09 117.104,85.157C116.678,90.701 116.419,96.259 116.31,101.817C116.216,106.419 116.203,111.008 116.059,115.604L116.028,129.298C115.32,129.472 114.686,129.662 114.165,129.871L114.165,89.044C114.165,88.206 114.288,86.624 114.485,84.623ZM117.551,60.138C118.172,56.393 119.177,51.626 120.395,46.529C120.642,44.781 127.981,41.541 140.799,41.541C143.949,41.541 146.762,41.74 149.227,42.061C149.228,42.052 149.228,42.046 149.23,42.036C154.433,42.716 158.043,43.955 159.852,45.092C159.858,45.096 159.866,45.099 159.871,45.103C159.902,45.122 159.943,45.142 159.973,45.162C159.977,45.169 159.98,45.174 159.984,45.182C160.738,45.671 161.148,46.137 161.203,46.53C162.422,51.627 163.426,56.393 164.048,60.138C164.311,61.734 165.881,73.336 166.787,81.524C166,81.29 165.002,81.07 163.772,80.861C163.534,77.21 163.231,73.737 162.879,70.44C162.884,70.354 162.907,70.269 162.89,70.183L162.811,69.802C161.761,60.219 160.289,52.162 158.745,45.654C157.82,45.232 156.647,44.818 155.26,44.437C155.57,47.337 155.861,50.521 156.101,53.916L153.445,52.925C153.38,51.853 153.326,50.78 153.254,49.708C153.118,47.757 152.964,45.805 152.798,43.853C152.474,43.788 152.14,43.725 151.799,43.663C151.893,45.698 151.974,47.733 152.035,49.768C152.06,50.651 152.068,51.535 152.088,52.418L149.212,51.345C149.146,51.32 149.079,51.303 149.012,51.292L140.983,50.011C140.888,49.997 140.797,50.017 140.705,50.027C140.614,50.017 140.524,49.997 140.43,50.011L132.401,51.292C132.333,51.303 132.266,51.32 132.202,51.345L122.102,55.114C121.987,55.157 121.9,55.241 121.809,55.319C122.342,52.609 122.906,49.906 123.524,47.213C122.114,52.628 120.888,58.099 119.868,63.609L118.522,70.183C118.471,70.435 118.543,70.68 118.669,70.897C118.508,72.02 118.323,73.139 118.184,74.266C117.901,76.481 117.659,78.701 117.447,80.924C116.386,81.114 115.518,81.313 114.811,81.524C115.717,73.337 117.286,61.734 117.551,60.138ZM140.799,4.227C140.859,4.227 140.923,4.246 140.983,4.248C137.567,5.437 134.078,10.449 132.765,12.502C132.077,12.668 131.419,12.855 130.808,13.071C131.299,12.063 131.763,11.241 132.189,10.659C135.185,6.572 138.323,4.227 140.799,4.227ZM135.962,14.709C137.377,14.514 138.988,14.391 140.799,14.391C142.61,14.391 144.222,14.514 145.637,14.709L145.637,19.256C145.637,20.25 145.34,20.25 145.161,20.25L136.437,20.25C136.26,20.25 135.962,20.25 135.962,19.256L135.962,14.709ZM154.785,40.29C154.031,40.103 153.236,39.939 152.424,39.787C151.727,32.765 150.76,25.771 149.264,18.882C150.475,25.752 151.164,32.686 151.584,39.636C148.242,39.07 144.516,38.777 140.799,38.777C133.289,38.777 125.74,39.956 121.453,42.231C123.764,33.111 126.59,23.556 129.06,17.164C129.47,16.528 131.361,15.543 134.58,14.933L134.58,19.256C134.58,21.4 135.879,21.632 136.437,21.632L145.161,21.632C145.72,21.632 147.018,21.4 147.018,19.256L147.018,14.933C150.237,15.543 152.129,16.529 152.538,17.164C155.009,23.556 157.834,33.111 160.144,42.231C159.391,41.831 158.541,41.464 157.602,41.132C155.849,34.664 154.116,30.175 152.907,27.711C152.907,27.711 153.842,32.582 154.785,40.29ZM167.432,129.871C166.634,129.549 165.583,129.272 164.369,129.032L164.369,99.49C164.369,94.429 164.243,89.623 164.017,85.069C162.232,84.748 159.847,84.442 156.916,84.191C156.981,93.802 156.965,102.02 156.965,102.02L156.965,128.09C156.289,128.034 155.608,127.983 154.926,127.938L154.882,111.866L154.84,96.332C154.868,93.743 154.659,91.154 154.639,88.565L154.557,84.011C153.739,83.955 152.893,83.902 152.008,83.855L151.926,88.565C151.905,91.154 151.696,93.743 151.724,96.332L151.682,111.866L151.639,127.75C147.225,127.539 143.247,127.495 141.49,127.487L141.49,82.202C142.319,82.204 143.137,82.209 143.932,82.22L143.932,82.218C144.402,82.225 144.922,82.235 145.462,82.247C146.817,82.273 148.121,82.311 149.366,82.359C155.421,82.584 163.014,83.111 166.784,84.342C166.783,84.374 166.784,84.405 166.783,84.436C166.924,84.499 167.031,84.561 167.113,84.623C167.309,86.623 167.432,88.206 167.432,89.044L167.432,129.871ZM180.916,176.638C184.444,190.045 203.298,205.622 204.07,206.254L258.747,253.692C258.861,253.789 270.155,263.497 271.645,270.548C273.784,280.667 276.183,292.373 277.056,296.634L276.282,296.634C275.182,292.384 271.318,277.444 269.844,271.644C268.116,264.849 259.824,257.362 259.824,257.362C259.824,257.362 204.544,209.338 198.773,204.339C193.002,199.34 188.564,193.33 188.564,193.33C188.564,193.33 180.302,184.923 178.197,174.621C176.114,164.418 172.107,142.63 170.196,132.161L170.196,119.47C172.43,135.753 176.008,157.986 180.916,176.638ZM168.771,326.396C162.474,326.594 155.88,327.712 152.354,329.764C151.998,322.376 151.288,304.817 152.156,296.898C153.279,286.638 156.971,279.06 158.27,276.651L170.08,276.651C172.059,277.842 178.518,282.33 181.521,291.749C184.413,300.818 185.161,320.687 185.349,328.676C184.397,328.209 183.209,327.804 181.784,327.463C178.272,326.619 173.647,326.237 168.771,326.396ZM126.884,347.052C128.223,345.607 130.25,344.663 132.353,344.256C131.241,344.229 130.114,344.364 129.007,344.652C128.461,344.795 127.92,344.984 127.393,345.226C128.727,343.945 130.602,343.084 132.56,342.705C131.448,342.678 130.322,342.813 129.214,343.103C128.668,343.244 128.127,343.434 127.6,343.675C128.934,342.395 130.809,341.533 132.767,341.154C131.655,341.127 130.529,341.263 129.421,341.552C128.876,341.693 128.334,341.883 127.808,342.124C129.142,340.844 131.016,339.982 132.974,339.604C131.862,339.576 130.735,339.713 129.628,340.001C129.082,340.143 128.541,340.332 128.015,340.573C129.349,339.293 131.224,338.432 133.182,338.054C132.07,338.025 130.942,338.162 129.835,338.45C129.289,338.592 128.748,338.781 128.222,339.022C129.556,337.742 131.431,336.882 133.389,336.503C132.277,336.475 131.15,336.611 130.043,336.899C129.496,337.041 128.955,337.23 128.429,337.472C129.763,336.191 131.638,335.331 133.597,334.952C132.484,334.924 131.358,335.061 130.25,335.349C129.703,335.491 129.162,335.68 128.636,335.921C129.938,334.672 131.755,333.829 133.662,333.438C133.868,337.335 134.092,341.344 134.328,345.306C131.603,345.626 128.901,346.178 126.884,347.052ZM95.807,328.676C95.994,320.687 96.742,300.82 99.634,291.749C102.593,282.469 109.055,277.935 111.183,276.651L122.887,276.651C124.187,279.055 127.873,286.609 128.998,296.898C129.867,304.817 129.158,322.376 128.8,329.764C125.276,327.712 118.681,326.594 112.385,326.396C107.504,326.237 102.883,326.619 99.371,327.463C97.947,327.804 96.758,328.21 95.807,328.676ZM94.162,307.861L4.226,307.861L4.226,299.819L95.107,299.819C94.729,302.378 94.417,305.107 94.162,307.861ZM165.844,273.888L165.486,271.644L167.854,271.644L168.693,273.888L165.844,273.888ZM175.116,330.629C173.378,330.629 171.507,330.842 170.014,331.342C170.696,330.629 173.829,327.841 178.472,330.871L178.472,330.914C177.385,330.723 176.225,330.629 175.116,330.629ZM133.502,330.334C132.841,330.358 132.182,330.438 131.523,330.573C131.53,330.404 131.538,330.223 131.547,330.034C132.177,329.739 132.904,329.464 133.448,329.273C133.466,329.623 133.484,329.98 133.502,330.334ZM133.58,331.871C132.871,331.88 132.16,331.961 131.451,332.099C131.461,331.89 131.476,331.579 131.495,331.185C132.137,330.891 132.813,330.661 133.51,330.485C133.533,330.946 133.557,331.405 133.58,331.871ZM121.409,353.32C123.055,353.64 124.698,354.137 126.141,354.996C122.873,354.371 119.661,354.253 116.408,354.26C113.155,354.271 109.924,354.427 106.61,354.741C108.128,354.028 109.767,353.607 111.411,353.318C113.058,353.023 114.73,352.898 116.404,352.879C118.077,352.887 119.757,352.996 121.409,353.32ZM116.406,352.03C113.358,352.039 110.333,352.178 107.218,352.438C108.637,351.753 110.174,351.349 111.716,351.071C113.261,350.788 114.83,350.669 116.402,350.649C117.973,350.657 119.55,350.763 121.1,351.073C122.644,351.379 124.186,351.855 125.533,352.678C122.458,352.125 119.454,352.022 116.406,352.03ZM106.292,329.468C108.662,329.337 110.484,330.05 111.551,331.33C110.062,330.839 108.207,330.629 106.482,330.629C105.225,330.629 103.907,330.749 102.703,331C102.822,330.837 103.79,329.605 106.292,329.468ZM116.393,336.427C115.205,336.423 114.016,336.411 112.792,336.371L112.68,335.704C113.064,335.557 113.458,335.438 113.853,335.344C114.684,335.141 115.536,335.063 116.389,335.045C117.242,335.055 118.1,335.126 118.937,335.345C119.77,335.556 120.603,335.886 121.279,336.452C119.556,336.401 118.011,336.416 116.393,336.427ZM116.395,338.655C115.326,338.653 114.258,338.657 113.177,338.654L113.02,337.724C113.196,337.677 113.371,337.63 113.548,337.591C114.481,337.376 115.435,337.292 116.391,337.274C117.346,337.284 118.307,337.359 119.246,337.592C120.181,337.816 121.115,338.167 121.886,338.77C119.971,338.647 118.217,338.646 116.395,338.655ZM116.396,340.885L113.555,340.905L113.372,339.817C114.366,339.61 115.378,339.521 116.392,339.504C117.45,339.513 118.514,339.593 119.555,339.839C120.591,340.076 121.627,340.448 122.494,341.088C120.385,340.894 118.423,340.875 116.396,340.885ZM116.398,343.114C115.576,343.114 114.754,343.129 113.932,343.143L113.733,341.965C114.615,341.83 115.502,341.747 116.394,341.732C117.555,341.742 118.722,341.827 119.864,342.085C121.001,342.337 122.139,342.729 123.102,343.406C120.8,343.14 118.629,343.104 116.398,343.114ZM114.307,345.376L114.096,344.119C114.86,344.032 115.626,343.974 116.396,343.962C117.659,343.971 118.929,344.061 120.173,344.332C121.412,344.598 122.65,345.012 123.71,345.724C121.214,345.386 118.836,345.334 116.4,345.343C115.702,345.344 115.004,345.363 114.307,345.376ZM124.318,348.042C121.629,347.632 119.042,347.563 116.402,347.572C115.645,347.573 114.889,347.599 114.132,347.615C114.333,347.204 114.445,346.768 114.445,346.31C114.445,346.303 114.443,346.296 114.443,346.289C115.093,346.232 115.745,346.2 116.398,346.191C117.764,346.199 119.136,346.295 120.482,346.579C121.823,346.858 123.162,347.293 124.318,348.042ZM111.398,349.936C112.203,349.584 112.875,349.146 113.383,348.639C114.384,348.516 115.39,348.434 116.4,348.42C117.868,348.429 119.343,348.528 120.791,348.826C122.233,349.118 123.674,349.574 124.926,350.359C122.044,349.879 119.248,349.793 116.404,349.802C114.737,349.806 113.073,349.858 111.398,349.936ZM119.058,271.644L134.178,271.644L133.865,273.888L118.745,273.888L119.058,271.644ZM116.954,271.644L117.663,271.644L117.35,273.888L116.38,273.888L116.954,271.644ZM113.688,271.644L114.101,271.644L113.528,273.888L112.709,273.888L113.688,271.644ZM141.49,268.879L141.49,223.595C144.801,223.604 147.841,223.68 150.596,223.804C150.752,223.811 150.909,223.817 151.067,223.825C151.17,223.83 151.277,223.834 151.379,223.839L151.379,223.84C156.269,224.068 161.714,224.505 165.272,225.332C165.41,225.362 165.545,225.393 165.671,225.423C165.729,225.438 165.786,225.452 165.843,225.467C166.198,225.556 166.505,225.645 166.766,225.732C166.771,225.734 166.778,225.736 166.784,225.737L166.784,225.738C167.048,225.828 167.269,225.917 167.432,226.004L167.432,268.879L141.49,268.879ZM144.468,273.888L144.502,271.644L146.154,271.644L146.154,273.888L144.468,273.888ZM136.536,271.644L136.347,273.888L135.26,273.888L135.573,271.644L136.536,271.644ZM140.355,271.644L140.321,273.888L139.121,273.888L139.311,271.644L140.355,271.644ZM114.165,268.879L114.165,226.005C114.329,225.917 114.554,225.827 114.821,225.736L114.821,225.735C114.829,225.733 114.838,225.73 114.846,225.729C115.099,225.644 115.393,225.559 115.733,225.473C119.12,224.588 124.604,224.118 129.612,223.869C129.834,223.857 130.06,223.847 130.285,223.836C130.449,223.828 130.608,223.821 130.771,223.814C133.585,223.685 136.704,223.604 140.108,223.595L140.108,268.879L114.165,268.879ZM148.127,330.337C148.146,329.947 148.167,329.556 148.186,329.171C148.547,329.293 149.062,329.476 149.594,329.689C149.606,329.979 149.618,330.248 149.63,330.493C149.129,330.408 148.629,330.357 148.127,330.337ZM149.7,332.019C149.149,331.931 148.599,331.884 148.049,331.874C148.073,331.412 148.096,330.957 148.119,330.499C148.645,330.635 149.155,330.805 149.653,331.008C149.675,331.481 149.691,331.818 149.7,332.019ZM170.718,342.477L172.396,334.119C173.404,333.806 174.481,333.696 175.336,334.091C175.014,334.118 174.692,334.152 174.378,334.2C174.931,334.283 175.474,334.411 176.003,334.565C176.219,334.789 176.415,335.05 176.558,335.402L176.558,335.403C175.839,335.391 175.129,335.45 174.442,335.553C175.267,335.677 176.08,335.882 176.829,336.172C176.89,336.363 176.95,336.563 177.009,336.773C176.155,336.724 175.315,336.785 174.507,336.906C175.463,337.05 176.4,337.304 177.241,337.676C177.28,337.835 177.318,337.995 177.355,338.157C176.405,338.07 175.47,338.125 174.572,338.26C175.628,338.418 176.669,338.701 177.572,339.144C177.599,339.275 177.625,339.404 177.651,339.534C176.621,339.412 175.606,339.467 174.637,339.612C175.779,339.784 176.908,340.097 177.858,340.604C177.878,340.707 177.896,340.811 177.914,340.908C176.815,340.751 175.733,340.811 174.701,340.966C175.921,341.149 177.117,341.501 178.104,342.072C177.188,341.872 176.185,341.761 175.116,341.761C173.464,341.761 171.963,342.021 170.718,342.477ZM162.136,346.578C163.477,346.317 164.842,346.21 166.208,346.191C166.525,346.193 166.843,346.221 167.16,346.233C167.159,346.259 167.153,346.284 167.153,346.31C167.153,346.755 167.261,347.179 167.45,347.58C167.038,347.576 166.626,347.57 166.212,347.572C163.574,347.577 160.961,347.679 158.243,347.835C159.464,347.203 160.798,346.832 162.136,346.578ZM162.441,344.331C163.681,344.082 164.942,343.98 166.206,343.962C166.667,343.965 167.129,343.995 167.591,344.025L167.323,345.336C167.322,345.34 167.322,345.344 167.32,345.348C166.95,345.346 166.582,345.342 166.21,345.343C163.776,345.346 161.37,345.43 158.851,345.532C159.973,344.928 161.205,344.573 162.441,344.331ZM162.747,342.084C163.884,341.847 165.043,341.751 166.204,341.732C166.815,341.737 167.428,341.769 168.038,341.83L167.775,343.118C167.255,343.112 166.733,343.111 166.208,343.114C163.979,343.114 161.779,343.18 159.459,343.23C160.481,342.653 161.612,342.315 162.747,342.084ZM163.052,339.838C164.087,339.611 165.143,339.521 166.202,339.504C166.961,339.511 167.72,339.579 168.474,339.693L168.227,340.901C167.556,340.893 166.885,340.882 166.206,340.885L160.067,340.929C160.99,340.378 162.019,340.057 163.052,339.838ZM163.357,337.591C164.291,337.376 165.244,337.292 166.2,337.274C167.105,337.283 168.015,337.361 168.907,337.566L168.683,338.662C167.857,338.651 167.038,338.65 166.204,338.655C164.386,338.652 162.598,338.681 160.675,338.626C161.499,338.104 162.427,337.799 163.357,337.591ZM168.747,335.345C168.94,335.394 169.134,335.451 169.326,335.515L169.141,336.424C168.154,336.418 167.185,336.42 166.202,336.427C164.589,336.421 163.008,336.432 161.282,336.324C162.008,335.828 162.834,335.54 163.662,335.344C164.494,335.141 165.346,335.063 166.198,335.045C167.051,335.055 167.909,335.126 168.747,335.345ZM170.075,349.883C168.789,349.819 167.507,349.798 166.214,349.802C163.371,349.808 160.552,349.928 157.636,350.137C158.955,349.479 160.391,349.09 161.831,348.824C163.274,348.553 164.741,348.439 166.209,348.42C166.831,348.424 167.453,348.456 168.073,348.5C168.569,349.041 169.251,349.508 170.075,349.883ZM147.966,333.452C149.854,333.849 151.648,334.684 152.937,335.921C152.411,335.68 151.869,335.491 151.323,335.349C150.216,335.061 149.09,334.924 147.977,334.952C149.935,335.331 151.81,336.191 153.144,337.472C152.618,337.23 152.076,337.041 151.531,336.899C150.424,336.611 149.297,336.475 148.184,336.503C150.143,336.882 152.017,337.742 153.351,339.022C152.825,338.781 152.284,338.592 151.738,338.45C150.631,338.162 149.504,338.025 148.391,338.054C150.35,338.432 152.224,339.293 153.558,340.573C153.032,340.332 152.491,340.143 151.945,340.001C150.838,339.713 149.712,339.576 148.599,339.604C150.557,339.982 152.432,340.844 153.766,342.124C153.239,341.883 152.698,341.693 152.152,341.552C151.045,341.263 149.919,341.127 148.807,341.154C150.765,341.533 152.64,342.395 153.974,343.675C153.446,343.434 152.905,343.244 152.359,343.103C151.252,342.813 150.126,342.678 149.014,342.705C150.972,343.084 152.847,343.945 154.181,345.226C153.654,344.984 153.112,344.795 152.567,344.652C151.46,344.364 150.333,344.229 149.221,344.256C151.312,344.661 153.329,345.6 154.668,347.031C152.664,346.173 149.994,345.631 147.302,345.313C147.537,341.354 147.762,337.347 147.966,333.452ZM152.729,334.37C152.203,334.129 151.662,333.94 151.116,333.798C150.074,333.526 149.016,333.403 147.969,333.411C147.993,332.932 148.019,332.451 148.044,331.977C149.828,332.394 151.507,333.196 152.729,334.37ZM175.95,354.996C172.682,354.371 169.471,354.253 166.217,354.26C162.965,354.271 159.733,354.427 156.42,354.741C157.937,354.028 159.576,353.607 161.22,353.318C162.867,353.023 164.539,352.898 166.213,352.879C167.887,352.887 169.566,352.996 171.219,353.32C172.864,353.64 174.507,354.137 175.95,354.996ZM166.216,352.03C163.168,352.039 160.142,352.178 157.028,352.438C158.446,351.753 159.983,351.349 161.525,351.071C163.07,350.788 164.64,350.669 166.211,350.649C167.782,350.657 169.359,350.763 170.91,351.073C172.453,351.379 173.995,351.855 175.343,352.678C172.267,352.125 169.265,352.022 166.216,352.03ZM165.205,177.956C165.384,177.995 165.556,178.034 165.716,178.073C165.744,178.08 165.772,178.087 165.8,178.094C166.55,178.28 167.1,178.465 167.432,178.643L167.432,224.594C166.634,224.272 165.583,223.996 164.369,223.755L164.369,179.169C162.56,178.826 160.07,178.497 156.965,178.23L156.965,222.813C156.374,222.765 155.779,222.72 155.182,222.679L155.061,178.081C153.941,178 152.755,177.928 151.503,177.866L151.383,222.461C147.071,222.26 143.214,222.218 141.49,222.21L141.49,176.233C145.165,176.244 148.521,176.333 151.507,176.483L151.507,176.486C156.334,176.714 161.677,177.146 165.205,177.956ZM129.455,176.517C132.6,176.348 136.168,176.244 140.108,176.233L140.108,222.21C136.774,222.226 125.43,222.365 118.35,223.55L118.259,178.988C117.345,179.138 116.565,179.292 115.925,179.446L115.834,224.069C115.204,224.23 114.638,224.404 114.165,224.594L114.165,178.643C114.493,178.467 115.037,178.285 115.774,178.101C115.808,178.092 115.844,178.083 115.879,178.074C115.896,178.069 115.911,178.065 115.928,178.061L115.928,178.063C119.291,177.219 124.585,176.763 129.455,176.517ZM97,290.91C96.48,292.543 96.029,294.494 95.634,296.634L7.965,296.634L16.879,272.348L93.264,203.109L103.798,185.687L109.02,155.556L111.401,155.556L111.401,269.973L109.449,274.449C105.827,277 99.726,282.361 97,290.91ZM106.292,333.932C107.761,334.06 109.106,336.316 110.211,342.265C109.109,341.944 107.85,341.761 106.482,341.761C105.003,341.761 103.647,341.971 102.485,342.341C102.485,338.526 104.781,333.799 106.292,333.932ZM121.579,356.637C119.858,356.525 118.135,356.473 116.41,356.489C114.684,356.482 112.956,356.55 111.225,356.633C109.495,356.738 107.762,356.838 106.003,357.043C109.268,355.613 112.869,355.161 116.406,355.107C118.182,355.115 119.964,355.229 121.718,355.567C123.468,355.89 125.204,356.437 126.749,357.313C125.016,356.942 123.298,356.774 121.579,356.637ZM133.661,333.408C132.595,333.395 131.517,333.521 130.457,333.798C129.91,333.94 129.369,334.129 128.843,334.37C130.08,333.185 131.781,332.375 133.585,331.962C133.61,332.44 133.636,332.925 133.661,333.408ZM171.389,356.637C169.668,356.525 167.944,356.473 166.219,356.489C164.493,356.482 162.766,356.55 161.035,356.633C159.305,356.738 157.571,356.838 155.812,357.043C159.078,355.613 162.678,355.161 166.215,355.107C167.991,355.115 169.774,355.229 171.527,355.567C173.278,355.89 175.014,356.437 176.558,357.313C174.826,356.942 173.107,356.774 171.389,356.637ZM184.155,290.91C181.508,282.607 175.682,277.462 172.03,274.921L170.196,270.011L170.196,157.938L171.578,179.642L171.578,268.879L173.494,273.713C173.494,273.713 184.562,279.878 186.907,295.252L213.47,295.252C213.47,295.252 188.726,269.914 188.726,244.925C188.726,234.951 188.664,217.482 188.617,205.664L186.486,203.732L176.006,186.25L171.722,155.556L171.974,155.556L177.174,185.559L177.335,185.827L177.345,185.887L182.023,193.649L187.653,203.041L264.114,272.348L273.811,296.634L185.522,296.634C185.127,294.494 184.676,292.543 184.155,290.91ZM143.932,128.875C149.652,128.961 161.073,129.332 166.341,130.872C166.368,130.879 166.395,130.887 166.422,130.895C166.54,130.93 166.672,130.963 166.784,130.999C166.783,131.004 166.784,131.01 166.784,131.015C167.048,131.105 167.269,131.194 167.432,131.281L167.432,177.232C166.634,176.911 165.583,176.634 164.369,176.394L164.369,131.791C162.56,131.448 160.07,131.119 156.965,130.852L156.965,175.451C156.332,175.399 155.693,175.352 155.054,175.308L154.966,142.935L154.933,130.694C153.889,130.62 152.789,130.552 151.632,130.494L151.598,142.935L151.511,175.105C147.148,174.899 143.23,174.856 141.49,174.849L141.49,128.872C142.318,128.875 143.139,128.878 143.932,128.889L143.932,128.875ZM131.519,53.812L131.698,54.671L126.1,56.609L129.192,59.775L128.603,59.946L124.453,56.45L127.6,55.275L131.519,53.812ZM139.557,53.141L134.523,53.837L135.305,58.23L134.575,58.344L133.764,54.441L133.509,53.215L139.557,52.249L139.557,53.141ZM123.137,57.971L124.061,58.75L121.847,68.924L120.86,69.101L123.137,57.971ZM147.456,53.144L142.829,53L142.829,57.718L141.856,57.568L141.856,52.249L147.456,53.144ZM158.275,57.971L158.543,59.278L154.35,62.154L154.169,61.431L158.188,58.044L158.275,57.971ZM149.659,54.938L149.892,53.812L150.951,54.207L149.76,59.068L148.854,58.807L149.659,54.938ZM154.478,79.86C154.406,76.495 154.314,73.13 154.208,69.765C154.362,69.981 154.591,70.139 154.862,70.188L156.762,70.528C156.814,73.589 156.854,76.836 156.884,80.041C156.104,79.976 155.305,79.915 154.478,79.86ZM118.974,74.354C119.068,73.361 119.204,72.373 119.315,71.382C119.39,71.399 119.461,71.427 119.538,71.427C119.599,71.427 119.661,71.421 119.721,71.411L126.552,70.188C126.952,70.116 127.275,69.815 127.374,69.42L129.259,61.913L134.063,60.513L140.706,59.488L147.218,60.483L152.153,61.914L152.215,62.159C152.236,68.011 152.181,73.864 152.077,79.717C148.568,79.533 144.751,79.434 140.799,79.434C133.396,79.434 126.429,79.773 121.18,80.389C120.165,80.508 119.263,80.631 118.452,80.758C118.595,78.622 118.764,76.486 118.974,74.354ZM114.821,130.997C114.935,130.96 115.07,130.926 115.191,130.891C115.206,130.886 115.222,130.881 115.238,130.877C120.388,129.365 131.469,128.977 137.305,128.88L137.305,128.896C138.217,128.882 139.152,128.875 140.108,128.872L140.108,174.849C136.759,174.863 125.325,175.005 118.253,176.206L118.213,156.951L118.161,131.625C117.336,131.763 116.62,131.903 116.022,132.044L115.972,156.951L115.931,176.684C115.262,176.852 114.662,177.033 114.165,177.232L114.165,131.281C114.329,131.193 114.554,131.104 114.822,131.013C114.821,131.008 114.821,131.002 114.821,130.997ZM129.72,361.728C127.366,361.036 121.991,360.552 115.727,360.552C109.434,360.552 104.034,361.04 101.698,361.738C101.467,361.63 101.32,361.533 101.279,361.458C101.564,360.886 106.282,359.448 115.732,359.448C125.044,359.448 129.761,360.845 130.169,361.433C130.11,361.516 129.953,361.617 129.72,361.728ZM179.853,361.729C177.501,361.036 172.123,360.552 165.858,360.552C159.566,360.552 154.167,361.04 151.831,361.737C151.6,361.63 151.454,361.533 151.413,361.458C151.698,360.886 156.417,359.448 165.867,359.448C175.179,359.448 179.896,360.845 180.304,361.433C180.245,361.517 180.089,361.618 179.853,361.729ZM277.373,307.861L186.994,307.861C186.738,305.107 186.427,302.378 186.048,299.819L277.373,299.819L277.373,307.861ZM280.123,298.75L280.101,297.74C280.072,297.59 277.01,282.559 274.349,269.976C272.665,262.007 261.036,252.011 260.549,251.598L205.851,204.142C205.663,203.986 186.892,188.484 183.589,175.933C174.966,143.164 170.453,99.142 170.196,96.591L170.196,88.427L170.181,88.427C169.958,82.817 167.115,61.743 166.773,59.685C164.627,46.745 156.576,15.76 151.64,9.024C148.065,4.148 144.215,1.463 140.799,1.463C137.383,1.463 133.534,4.148 129.96,9.024C125.022,15.762 116.971,46.748 114.825,59.685C114.47,61.825 111.411,84.517 111.402,89.023L111.401,89.023L111.401,96.523C111.249,98.048 106.734,142.754 98.002,175.933C94.702,188.475 75.928,203.986 75.709,204.167L21.05,251.59C20.556,252.011 8.926,262.007 7.241,269.976C4.581,282.559 1.521,297.59 1.49,297.74L1.474,298.637L1.462,298.649L1.462,310.626L4.076,324.821L93.046,333.169L93.046,341.674C93.046,342.438 93.664,343.057 94.428,343.057L99.154,343.057L98.689,345.338C98.579,345.649 98.519,345.974 98.519,346.31C98.519,347.412 99.142,348.396 100.201,349.167L98.591,360.817L98.719,360.783C98.6,360.988 98.519,361.202 98.519,361.433C98.519,364.465 109.339,365.273 115.732,365.273C122.125,365.273 132.944,364.465 132.944,361.433C132.944,361.362 132.91,361.3 132.899,361.232L132.931,361.243L132.161,355.675C133.096,355.832 134.051,355.959 135.004,356.058C135.689,366.327 136.388,374.961 136.902,378.272C138.21,386.702 139.201,388.419 140.732,388.527L140.732,388.538C140.76,388.538 140.787,388.533 140.814,388.532C140.842,388.533 140.869,388.538 140.896,388.538L140.896,388.527C142.427,388.419 143.418,386.701 144.727,378.272C145.242,374.959 145.941,366.325 146.626,356.057C147.567,355.959 148.513,355.837 149.436,355.681L148.668,361.243L148.702,361.222C148.689,361.293 148.654,361.358 148.654,361.433C148.654,364.465 159.474,365.273 165.867,365.273C172.26,365.273 183.078,364.465 183.078,361.433C183.078,361.364 183.045,361.304 183.034,361.237L183.064,361.243L181.396,349.168C182.456,348.396 183.078,347.412 183.078,346.31C183.078,346.232 183.065,346.157 183.059,346.08L183.059,346.079C183.046,345.909 183.017,345.742 182.975,345.578L182.54,342.994L186.723,342.994C187.487,342.994 188.105,342.376 188.105,341.612L188.105,333.211L277.521,324.821L280.137,310.626L280.137,298.765L280.123,298.75Z" style="fill:rgb(38,37,37);fill-rule:nonzero;"/>
        <path d="M156.965,267.209L164.369,267.209L164.369,226.529C162.56,226.187 160.07,225.857 156.965,225.591L156.965,267.209Z" style="fill:rgb(38,37,37);fill-rule:nonzero;"/>
        <path d="M171.606,280.856C176.501,304.193 168.513,324.738 168.513,324.738C178.744,324.417 183.288,326.57 183.288,326.57C182.59,289.543 176.558,283.794 171.606,280.856Z" style="fill:rgb(38,37,37);fill-rule:nonzero;"/>
        <path d="M127.141,326.933C129.57,290.878 124.737,284.272 120.39,280.079C122.713,304.323 112.179,324.24 112.179,324.24C122.682,325.101 127.141,326.933 127.141,326.933Z" style="fill:rgb(38,37,37);fill-rule:nonzero;"/>
        <path d="M151.262,267.209L155.303,267.209L155.189,225.45C153.994,225.363 152.721,225.286 151.375,225.22L151.262,267.209Z" style="fill:rgb(38,37,37);fill-rule:nonzero;"/>
        <path d="M115.745,267.209L118.439,267.209L118.355,226.333C117.352,226.495 116.508,226.663 115.828,226.831L115.745,267.209Z" style="fill:rgb(38,37,37);fill-rule:nonzero;"/>
        <path d="M187.902,301.257C187.902,301.257 188.269,303.841 188.45,306.424L218.546,306.424C218.546,306.424 218.533,304.765 217.803,302.738L264.278,302.738C267.835,302.505 271.391,302.327 274.949,302.047C271.391,301.767 267.835,301.589 264.278,301.356L217.21,301.356C217.193,301.323 217.182,301.291 217.164,301.257L187.902,301.257Z" style="fill:rgb(38,37,37);fill-rule:nonzero;"/>
        <path d="M188.564,311.693C188.564,311.693 189.63,323.013 189.63,328.535L218.307,325.944C218.307,325.944 219.761,320.068 219.305,313.794L262.824,313.794C266.308,313.444 269.794,313.178 273.279,312.757C269.794,312.337 266.308,312.07 262.824,311.721L219.087,311.721C219.085,311.712 219.085,311.702 219.083,311.693L200.679,311.693C200.484,311.69 200.29,311.692 200.095,311.689C198.483,311.621 196.872,311.592 195.261,311.693L188.564,311.693Z" style="fill:rgb(38,37,37);fill-rule:nonzero;"/>
        <path d="M81.2,295.252L94.427,295.252C96.771,279.878 107.841,273.713 107.841,273.713L109.756,268.879L109.756,179.642C109.756,179.642 104.472,278.701 81.2,295.252Z" style="fill:rgb(38,37,37);fill-rule:nonzero;"/>
        <path d="M84.223,301.257C84.233,301.27 84.238,301.285 84.247,301.298C83.273,301.295 82.299,301.309 81.325,301.335L70.654,301.356L17.301,301.356C13.744,301.589 10.187,301.767 6.63,302.047C10.187,302.327 13.744,302.505 17.301,302.738L70.654,302.738L81.325,302.759C82.436,302.79 83.547,302.798 84.658,302.787C84.59,303.854 83.952,305.146 82.841,306.424L92.884,306.424C93.065,303.841 93.432,301.257 93.432,301.257L84.223,301.257Z" style="fill:rgb(38,37,37);fill-rule:nonzero;"/>
        <path d="M86.318,311.693C84.706,311.592 83.095,311.621 81.483,311.689C77.998,311.752 74.514,311.707 71.029,311.721L18.755,311.721C15.269,312.07 11.785,312.337 8.3,312.757C11.785,313.178 15.269,313.444 18.755,313.794L71.029,313.794C74.514,313.808 77.998,313.763 81.483,313.825C82.342,313.861 83.201,313.889 84.059,313.891C86.926,320.634 81.833,327.644 81.833,327.644L91.704,328.535C91.704,323.013 92.769,311.693 92.769,311.693L86.318,311.693Z" style="fill:rgb(38,37,37);fill-rule:nonzero;"/>
        <path d="M233.114,286.245L231.276,285.279L229.439,286.245L229.79,284.199L228.304,282.75L230.358,282.452L231.276,280.59L232.195,282.452L234.25,282.75L232.764,284.199L233.114,286.245ZM231.276,278.921C228.611,278.921 226.451,281.081 226.451,283.747C226.451,286.412 228.611,288.572 231.276,288.572C233.942,288.572 236.102,286.412 236.102,283.747C236.102,281.081 233.942,278.921 231.276,278.921Z" style="fill:rgb(38,37,37);fill-rule:nonzero;"/>
        <path d="M255.373,279.218L238.824,279.218C238.372,279.218 238.001,279.589 238.001,280.041L238.001,287.396C238.001,287.849 238.372,288.219 238.824,288.219L255.373,288.219C255.825,288.219 256.196,287.849 256.196,287.396L256.196,280.041C256.196,279.589 255.825,279.218 255.373,279.218Z" style="fill:rgb(38,37,37);fill-rule:nonzero;"/>
        <path d="M35.274,286.245L33.437,285.279L31.6,286.245L31.951,284.199L30.464,282.75L32.518,282.452L33.437,280.59L34.355,282.452L36.41,282.75L34.923,284.199L35.274,286.245ZM33.437,278.921C30.771,278.921 28.611,281.081 28.611,283.747C28.611,286.412 30.771,288.572 33.437,288.572C36.102,288.572 38.263,286.412 38.263,283.747C38.263,281.081 36.102,278.921 33.437,278.921Z" style="fill:rgb(38,37,37);fill-rule:nonzero;"/>
        <path d="M57.533,279.218L40.985,279.218C40.532,279.218 40.161,279.589 40.161,280.041L40.161,287.396C40.161,287.849 40.532,288.219 40.985,288.219L57.533,288.219C57.985,288.219 58.356,287.849 58.356,287.396L58.356,280.041C58.356,279.589 57.985,279.218 57.533,279.218Z" style="fill:rgb(38,37,37);fill-rule:nonzero;"/>
        <path d="M135.812,77.605L139.745,77.605C139.852,77.605 139.94,77.429 139.94,77.212L139.94,73.703C139.94,73.487 139.852,73.31 139.745,73.31L135.812,73.31C135.705,73.31 135.617,73.487 135.617,73.703L135.617,77.212C135.617,77.429 135.705,77.605 135.812,77.605Z" style="fill:rgb(38,37,37);fill-rule:nonzero;"/>
        <path d="M141.854,77.605L145.786,77.605C145.893,77.605 145.981,77.429 145.981,77.212L145.981,73.703C145.981,73.487 145.893,73.31 145.786,73.31L141.854,73.31C141.746,73.31 141.659,73.487 141.659,73.703L141.659,77.212C141.659,77.429 141.746,77.605 141.854,77.605Z" style="fill:rgb(38,37,37);fill-rule:nonzero;"/>
        <path d="M154.216,326.933C155.281,326.416 156.692,325.944 156.692,325.944C156.692,325.944 153.416,293.295 160.167,279.532C160.167,279.532 151.273,287.421 154.216,326.933Z" style="fill:rgb(38,37,37);fill-rule:nonzero;"/>
        <path d="M110.165,280.079C106.998,282.354 98.475,287.824 97.814,326.124C98.917,325.694 100.721,325.195 100.721,325.195C100.721,325.195 99.732,291.449 110.165,280.079Z" style="fill:rgb(38,37,37);fill-rule:nonzero;"/>
    </g>
</svg>
